<svg xmlns="http://www.w3.org/2000/svg" xmlns:xlink="http://www.w3.org/1999/xlink" version="1.1" x="0px" y="0px" viewBox="0 0 100 125" style="enable-background:new 0 0 100 100;" xml:space="preserve"><path d="M31.64,70.2h49.22c1.46,0,2.64-1.18,2.64-2.64s-1.18-2.64-2.64-2.64H31.64c-1.46,0-2.64,1.18-2.64,2.64  S30.18,70.2,31.64,70.2z"/><path d="M31.64,52.64h49.22c1.46,0,2.64-1.18,2.64-2.64s-1.18-2.64-2.64-2.64H31.64C30.17,47.36,29,48.54,29,50  S30.18,52.64,31.64,52.64z"/><path d="M31.64,35.08h49.22c1.46,0,2.64-1.18,2.64-2.64s-1.18-2.64-2.64-2.64H31.64c-1.46,0-2.64,1.18-2.64,2.64  S30.18,35.08,31.64,35.08z"/><path d="M19.67,35.65c1.74,0,3.16-1.44,3.16-3.21s-1.42-3.21-3.16-3.21s-3.16,1.44-3.16,3.21C16.51,34.21,17.93,35.65,19.67,35.65z"/><path d="M19.67,53.21c1.74,0,3.16-1.44,3.16-3.21s-1.42-3.21-3.16-3.21s-3.16,1.44-3.16,3.21S17.93,53.21,19.67,53.21z"/><path d="M19.67,70.77c1.74,0,3.16-1.44,3.16-3.21s-1.42-3.21-3.16-3.21s-3.16,1.44-3.16,3.21C16.51,69.33,17.93,70.77,19.67,70.77z"/></svg>